<svg width="24" height="24" viewBox="0 0 24 24" fill="none" xmlns="http://www.w3.org/2000/svg">
<path fill-rule="evenodd" clip-rule="evenodd" d="M16.6954 1.07787C17.0091 -0.353562 19.0509 -0.362133 19.3766 1.0693L19.3937 1.13787L19.4229 1.26987C19.8 2.87101 21.0943 4.09501 22.7177 4.37615C24.2126 4.63672 24.2126 6.78301 22.7177 7.04358C21.9206 7.18323 21.1824 7.55485 20.5954 8.11194C20.0084 8.66903 19.5988 9.38685 19.4177 10.1756L19.3766 10.3522C19.0509 11.7819 17.0109 11.775 16.6954 10.3402L16.6611 10.1893C16.4879 9.39761 16.0828 8.67545 15.4975 8.1149C14.9122 7.55434 14.1733 7.18079 13.3749 7.04187C11.8834 6.7813 11.8834 4.63844 13.3749 4.37958C14.1712 4.2413 14.9085 3.86964 15.4932 3.31173C16.078 2.75382 16.4839 2.0348 16.6594 1.24587L16.6834 1.13615L16.6954 1.07787ZM14.8423 10.5887C14.75 10.1601 14.5323 9.76866 14.217 9.46403C13.9017 9.15941 13.5029 8.95538 13.0714 8.87787V21.2464C13.6378 21.9791 14.3916 22.5452 15.2532 22.8847C16.1148 23.2242 17.0521 23.3247 17.9661 23.1754C18.88 23.0261 19.7367 22.6327 20.4454 22.0366C21.1542 21.4406 21.6888 20.6641 21.9926 19.7893C21.536 19.7447 21.0874 19.6392 20.6589 19.4756C19.6389 19.0916 18.5297 18.3356 17.6194 17.0139C17.4583 16.7797 17.3967 16.4911 17.4483 16.2116C17.4999 15.9321 17.6604 15.6845 17.8946 15.5233C18.1287 15.3621 18.4173 15.3006 18.6968 15.3522C18.9764 15.4038 19.224 15.5643 19.3851 15.7984C20.04 16.7499 20.7909 17.2367 21.4131 17.4699C21.7286 17.5899 22.0097 17.6413 22.2291 17.6584L22.2686 17.6619C23.3314 16.5064 24 14.271 24 12.4042C24 11.1459 23.6966 9.90472 23.172 8.85215L23.0366 8.87787C22.1451 9.03215 21.4354 9.70758 21.2349 10.5887L21.1937 10.7636C20.4257 14.1356 15.6137 14.115 14.8749 10.7362L14.8423 10.5887ZM10.9286 7.53215C10.5776 6.98885 10.3909 6.3558 10.3909 5.70901C10.3909 5.06222 10.5776 4.42917 10.9286 3.88587V2.99444C10.3333 2.29475 9.53765 1.79459 8.64906 1.56149C7.76048 1.32839 6.82177 1.37359 5.95969 1.69098C5.09761 2.00837 4.3537 2.58267 3.8284 3.33631C3.30311 4.08996 3.02174 4.98665 3.02229 5.9053V5.90872C3.08914 6.5773 3.36171 7.07444 3.67714 7.43444C4.06971 7.88187 4.48286 8.0653 4.58057 8.08587C4.7179 8.11705 4.84774 8.17497 4.96268 8.25633C5.07762 8.33769 5.17541 8.44089 5.25046 8.56004C5.32552 8.67919 5.37637 8.81196 5.40012 8.95076C5.42386 9.08956 5.42004 9.23168 5.38886 9.36901C5.35768 9.50634 5.29976 9.63617 5.2184 9.75111C5.13704 9.86605 5.03384 9.96384 4.91469 10.0389C4.79554 10.114 4.66277 10.1648 4.52397 10.1886C4.38516 10.2123 4.24304 10.2085 4.10571 10.1773C3.48857 10.035 2.7 9.56872 2.06571 8.84872C1.80852 8.55545 1.58804 8.23192 1.40914 7.8853C0.534857 9.09387 0 10.7344 0 12.4042C0 13.6642 0.305143 15.0922 0.828 16.2407C0.965143 16.0853 1.11371 15.9459 1.27371 15.8224C1.38319 15.7279 1.51069 15.6564 1.64851 15.6125C1.78634 15.5685 1.93165 15.5529 2.07567 15.5666C2.21969 15.5803 2.35944 15.6231 2.48649 15.6922C2.61355 15.7614 2.72528 15.8556 2.81495 15.9692C2.90461 16.0827 2.97036 16.2132 3.00822 16.3528C3.04608 16.4925 3.05527 16.6383 3.03524 16.7816C3.01521 16.9249 2.96637 17.0626 2.89166 17.1865C2.81696 17.3104 2.71794 17.4179 2.60057 17.5024C2.29543 17.7442 1.97657 18.2636 1.78114 18.8653C1.92999 19.8614 2.36832 20.7917 3.04163 21.5407C3.71493 22.2897 4.59353 22.8243 5.56818 23.078C6.54283 23.3317 7.57056 23.2933 8.5236 22.9677C9.47664 22.6421 10.313 22.0435 10.9286 21.2464V14.955C10.2385 15.5133 9.40241 15.8615 8.52 15.9579C8.38009 15.9735 8.23846 15.9614 8.10321 15.9224C7.96796 15.8833 7.84173 15.8179 7.73173 15.7301C7.62173 15.6422 7.53012 15.5335 7.46212 15.4102C7.39413 15.287 7.35107 15.1515 7.33543 15.0116C7.31978 14.8717 7.33185 14.73 7.37094 14.5948C7.41002 14.4595 7.47537 14.3333 7.56324 14.2233C7.65111 14.1133 7.75979 14.0217 7.88306 13.9537C8.00634 13.8857 8.1418 13.8427 8.28171 13.827C9.15429 13.731 9.78857 13.2287 10.2411 12.5687C10.7006 11.9002 10.8994 11.1664 10.9286 10.815V7.53215Z" fill="white"/>
</svg>
