<svg width="18" height="18" viewBox="0 0 18 18" fill="none" xmlns="http://www.w3.org/2000/svg">
<path d="M6.25 10C6.25 11.105 5.355 12 4.25 12C3.145 12 2.25 11.105 2.25 10C2.25 8.895 3.145 8 4.25 8C5.355 8 6.25 8.895 6.25 10Z" fill="white"/>
<path fill-rule="evenodd" clip-rule="evenodd" d="M4.25 11C4.51522 11 4.76957 10.8946 4.95711 10.7071C5.14464 10.5196 5.25 10.2652 5.25 10C5.25 9.73478 5.14464 9.48043 4.95711 9.29289C4.76957 9.10536 4.51522 9 4.25 9C3.98478 9 3.73043 9.10536 3.54289 9.29289C3.35536 9.48043 3.25 9.73478 3.25 10C3.25 10.2652 3.35536 10.5196 3.54289 10.7071C3.73043 10.8946 3.98478 11 4.25 11ZM4.25 12C5.355 12 6.25 11.105 6.25 10C6.25 8.895 5.355 8 4.25 8C3.145 8 2.25 8.895 2.25 10C2.25 11.105 3.145 12 4.25 12Z" fill="white"/>
<path d="M0 15.273C0 13.761 2.8315 13 4.25 13C5.6685 13 8.5 13.7615 8.5 15.2725V18H0V15.273Z" fill="white"/>
<path fill-rule="evenodd" clip-rule="evenodd" d="M1.167 14.9915C1.009 15.1475 1 15.237 1 15.273V17H7.5V15.2725C7.5 15.2375 7.491 15.1475 7.333 14.9915C7.166 14.827 6.8905 14.6505 6.513 14.489C5.753 14.1635 4.825 14 4.25 14C3.675 14 2.7465 14.1635 1.987 14.489C1.6095 14.6505 1.334 14.827 1.167 14.9915ZM4.25 13C2.8315 13 0 13.7615 0 15.2725V18H8.5V15.2725C8.5 13.762 5.6685 13 4.25 13Z" fill="white"/>
<path d="M15.75 10C15.75 11.105 14.855 12 13.75 12C12.645 12 11.75 11.105 11.75 10C11.75 8.895 12.645 8 13.75 8C14.855 8 15.75 8.895 15.75 10Z" fill="white"/>
<path fill-rule="evenodd" clip-rule="evenodd" d="M13.75 11C14.0152 11 14.2696 10.8946 14.4571 10.7071C14.6446 10.5196 14.75 10.2652 14.75 10C14.75 9.73478 14.6446 9.48043 14.4571 9.29289C14.2696 9.10536 14.0152 9 13.75 9C13.4848 9 13.2304 9.10536 13.0429 9.29289C12.8554 9.48043 12.75 9.73478 12.75 10C12.75 10.2652 12.8554 10.5196 13.0429 10.7071C13.2304 10.8946 13.4848 11 13.75 11ZM13.75 12C14.855 12 15.75 11.105 15.75 10C15.75 8.895 14.855 8 13.75 8C12.645 8 11.75 8.895 11.75 10C11.75 11.105 12.645 12 13.75 12Z" fill="white"/>
<path d="M11 9C11 10.105 10.105 11 9 11C7.895 11 7 10.105 7 9C7 7.895 7.895 7 9 7C10.105 7 11 7.895 11 9Z" fill="white"/>
<path fill-rule="evenodd" clip-rule="evenodd" d="M9 10C9.26522 10 9.51957 9.89464 9.70711 9.70711C9.89464 9.51957 10 9.26522 10 9C10 8.73478 9.89464 8.48043 9.70711 8.29289C9.51957 8.10536 9.26522 8 9 8C8.73478 8 8.48043 8.10536 8.29289 8.29289C8.10536 8.48043 8 8.73478 8 9C8 9.26522 8.10536 9.51957 8.29289 9.70711C8.48043 9.89464 8.73478 10 9 10ZM9 11C10.105 11 11 10.105 11 9C11 7.895 10.105 7 9 7C7.895 7 7 7.895 7 9C7 10.105 7.895 11 9 11Z" fill="white"/>
<path d="M8.5 3.4165C8.5 2.7756 8.24541 2.16096 7.79222 1.70778C7.33904 1.25459 6.7244 1 6.0835 1H4.499C3.84337 0.998945 3.21358 1.25559 2.74543 1.7146C2.27728 2.17361 2.00826 2.79821 1.99639 3.45374C1.98452 4.10927 2.23073 4.7432 2.68196 5.21887C3.13318 5.69453 3.75326 5.97381 4.4085 5.9965L4.5 6V7C4.5 7 8.5 6.4165 8.5 3.4165ZM10 2.618C10 1.92366 10.2758 1.25776 10.7668 0.766794C11.2578 0.275824 11.9237 0 12.618 0H15.5C16.163 0 16.7989 0.263392 17.2678 0.732233C17.7366 1.20107 18 1.83696 18 2.5C18 3.16304 17.7366 3.79893 17.2678 4.26777C16.7989 4.73661 16.163 5 15.5 5H14.5V6.5C14.5 6.5 10 5.868 10 2.618ZM9.5 15.273C9.5 13.761 12.3315 13 13.75 13C15.1685 13 18 13.7615 18 15.2725V18H9.5V15.273Z" fill="white"/>
<path fill-rule="evenodd" clip-rule="evenodd" d="M10.667 14.9915C10.509 15.1475 10.5 15.237 10.5 15.273V17H17V15.2725C17 15.2375 16.991 15.1475 16.833 14.9915C16.666 14.827 16.3905 14.6505 16.013 14.489C15.253 14.1635 14.325 14 13.75 14C13.175 14 12.2465 14.1635 11.487 14.489C11.1095 14.6505 10.834 14.827 10.667 14.9915ZM13.75 13C12.3315 13 9.5 13.7615 9.5 15.2725V18H18V15.2725C18 13.762 15.1685 13 13.75 13ZM9 14.2725C9 13.434 8.0765 12.826 6.9975 12.451C7.62362 12.155 8.30742 12.001 9 12C9.69258 12.001 10.3764 12.155 11.0025 12.451C9.9235 12.826 9 13.434 9 14.2725Z" fill="white"/>
<path fill-rule="evenodd" clip-rule="evenodd" d="M9 14.2725C9 13.826 9.262 13.4445 9.67 13.129L9.7405 13.0765C10.089 12.8235 10.5305 12.615 11.0025 12.4515C10.5342 12.2307 10.0329 12.088 9.5185 12.029C9.17391 11.9903 8.82609 11.9903 8.4815 12.029C7.96714 12.0879 7.46586 12.2304 6.9975 12.451C7.469 12.615 7.911 12.8235 8.259 13.076C8.283 13.0933 8.3065 13.111 8.3295 13.129C8.738 13.444 9 13.826 9 14.2725Z" fill="white"/>
</svg>
