<svg width="38" height="37" viewBox="0 0 38 37" fill="none" xmlns="http://www.w3.org/2000/svg">
<path d="M18.9593 0C16.4695 0 14.0041 0.490397 11.7039 1.44319C9.40364 2.39598 7.31358 3.79252 5.55305 5.55305C1.99749 9.10861 0 13.931 0 18.9593C0 27.3393 5.44132 34.449 12.9682 36.9706C13.9161 37.1223 14.2195 36.5346 14.2195 36.0227V32.8185C8.96775 33.9561 7.84915 30.278 7.84915 30.278C6.97702 28.0787 5.74467 27.491 5.74467 27.491C4.01937 26.3155 5.87738 26.3534 5.87738 26.3534C7.77331 26.4861 8.77815 28.3062 8.77815 28.3062C10.4276 31.188 13.2146 30.3349 14.2953 29.8799C14.4659 28.6475 14.9589 27.8133 15.4897 27.3393C11.2808 26.8653 6.86326 25.2348 6.86326 18.0113C6.86326 15.9068 7.58372 14.2195 8.81607 12.8734C8.62648 12.3994 7.9629 10.4276 9.00566 7.86811C9.00566 7.86811 10.5982 7.35621 14.2195 9.80196C15.7173 9.38485 17.3478 9.1763 18.9593 9.1763C20.5708 9.1763 22.2013 9.38485 23.6991 9.80196C27.3203 7.35621 28.9129 7.86811 28.9129 7.86811C29.9557 10.4276 29.2921 12.3994 29.1025 12.8734C30.3349 14.2195 31.0553 15.9068 31.0553 18.0113C31.0553 25.2538 26.6188 26.8464 22.3909 27.3203C23.0735 27.9081 23.6991 29.0646 23.6991 30.8278V36.0227C23.6991 36.5346 24.0025 37.1413 24.9694 36.9706C32.4962 34.4301 37.9186 27.3393 37.9186 18.9593C37.9186 16.4695 37.4282 14.0041 36.4754 11.7039C35.5226 9.40364 34.1261 7.31358 32.3655 5.55305C30.605 3.79252 28.515 2.39598 26.2147 1.44319C23.9145 0.490397 21.4491 0 18.9593 0Z" fill="white"/>
</svg>
