<svg width="26" height="26" viewBox="0 0 26 26" fill="none" xmlns="http://www.w3.org/2000/svg">
<path d="M13 10.3399C13.6113 10.3399 14.2167 10.2195 14.7814 9.98558C15.3462 9.75164 15.8594 9.40875 16.2917 8.97648C16.7239 8.54421 17.0668 8.03104 17.3008 7.46625C17.5347 6.90147 17.6551 6.29614 17.6551 5.68482C17.6551 5.0735 17.5347 4.46817 17.3008 3.90338C17.0668 3.3386 16.7239 2.82542 16.2917 2.39315C15.8594 1.96089 15.3462 1.61799 14.7814 1.38405C14.2167 1.15011 13.6113 1.0297 13 1.0297C11.7654 1.0297 10.5813 1.52015 9.70834 2.39315C8.83533 3.26616 8.34488 4.4502 8.34488 5.68482C8.34488 6.91943 8.83533 8.10348 9.70834 8.97648C10.5813 9.84949 11.7654 10.3399 13 10.3399ZM1.0297 24.1723V24.9703H24.9703V24.1723C24.9703 21.193 24.9703 19.7034 24.3904 18.5649C23.8803 17.5639 23.0665 16.75 22.0655 16.24C20.927 15.6601 19.4374 15.6601 16.4581 15.6601H9.54191C6.56264 15.6601 5.073 15.6601 3.93449 16.24C2.93349 16.75 2.11965 17.5639 1.6096 18.5649C1.0297 19.7034 1.0297 21.193 1.0297 24.1723Z" stroke="white" stroke-width="2" stroke-linecap="round" stroke-linejoin="round"/>
</svg>
