<svg width="40" height="40" viewBox="0 0 40 40" fill="none" xmlns="http://www.w3.org/2000/svg">
<path d="M19.9991 13.3423C16.3136 13.3423 13.3423 16.3421 13.3423 19.9991C13.3423 23.6561 16.3421 26.656 19.9991 26.656C23.6561 26.656 26.656 23.6561 26.656 19.9991C26.656 16.3421 23.6561 13.3423 19.9991 13.3423ZM39.9982 19.9991C39.9982 17.2278 39.9982 14.5137 39.8554 11.7423C39.7125 8.54249 38.9697 5.68547 36.627 3.37128C34.2842 1.02853 31.4558 0.285702 28.2559 0.142851C25.4846 -1.38362e-07 22.7704 0 19.9991 0C17.2278 0 14.5137 -1.38362e-07 11.7423 0.142851C8.54248 0.285702 5.68547 1.02853 3.37128 3.37128C1.02853 5.71404 0.285702 8.54249 0.142851 11.7423C-1.38362e-07 14.5137 0 17.2278 0 19.9991C0 22.7704 -1.38362e-07 25.4846 0.142851 28.2559C0.285702 31.4558 1.02853 34.3128 3.37128 36.627C5.71404 38.9697 8.54248 39.7126 11.7423 39.8554C14.5137 39.9983 17.2278 39.9983 19.9991 39.9983C22.7704 39.9983 25.4846 39.9983 28.2559 39.8554C31.4558 39.7126 34.3128 38.9697 36.627 36.627C38.9697 34.2842 39.7125 31.4558 39.8554 28.2559C40.0268 25.5132 39.9982 22.7704 39.9982 19.9991ZM19.9991 30.2558C14.3137 30.2558 9.74243 25.6846 9.74243 19.9991C9.74243 14.3137 14.3137 9.74244 19.9991 9.74244C25.6846 9.74244 30.2558 14.3137 30.2558 19.9991C30.2558 25.6846 25.6846 30.2558 19.9991 30.2558ZM30.6844 11.7138C29.3701 11.7138 28.2845 10.6567 28.2845 9.31388C28.2845 7.97108 29.3416 6.91399 30.6844 6.91399C32.0272 6.91399 33.0843 7.97108 33.0843 9.31388C33.0915 9.62683 33.0344 9.93793 32.9164 10.2279C32.7985 10.5178 32.6222 10.7805 32.3986 10.9995C32.1795 11.2232 31.9169 11.3994 31.6269 11.5174C31.337 11.6353 31.0259 11.6924 30.7129 11.6852L30.6844 11.7138Z" fill="white"/>
</svg>
