<svg width="65" height="74" viewBox="0 0 65 74" fill="none" xmlns="http://www.w3.org/2000/svg">
<path d="M64.4606 3.37824L57.717 64.7387L28.4439 74L0.292701 61.7292L0 0L64.4606 3.37824ZM11.4324 47.0677L11.4317 47.0805L11.4654 53.4889L29.1123 61.1833L47.4669 55.3756L49.9541 32.7456L27.2369 31.555L51.181 21.5968L51.8407 15.5686L10.6741 13.4111L11.1822 19.9021L31.226 20.914L35.5612 21.1412L11.3575 31.208L11.3867 37.1502L42.832 38.7982L41.5428 50.5221L29.4712 54.3361L17.8615 49.2746L17.8492 47.057L17.8692 42.9359L11.4289 42.5983L11.4324 47.0677Z" fill="#124B7A"/>
</svg>
