<svg width="22" height="22" viewBox="0 0 22 22" fill="none" xmlns="http://www.w3.org/2000/svg">
<path fill-rule="evenodd" clip-rule="evenodd" d="M11 1.20861e-10C12.4445 -6.77118e-06 13.8749 0.284511 15.2095 0.837308C16.5441 1.39011 17.7567 2.20036 18.7782 3.2218C19.7996 4.24324 20.6099 5.45587 21.1627 6.79045C21.7155 8.12504 22 9.55543 22 11C22 17.0751 17.0751 22 11 22C4.92488 22 0 17.0751 0 11C0 4.92488 4.92488 1.20861e-10 11 1.20861e-10ZM12.1 12.1H9.89999C7.17672 12.1 4.83872 13.7493 3.83032 16.1037C5.42587 18.3411 8.04256 19.8 11 19.8C13.9574 19.8 16.5741 18.3411 18.1697 16.1036C17.1613 13.7493 14.8233 12.1 12.1 12.1ZM11 3.3C9.17745 3.3 7.69998 4.77747 7.69998 6.59999C7.69998 8.42252 9.17745 9.89999 11 9.89999C12.8225 9.89999 14.3 8.42252 14.3 6.59999C14.3 4.77747 12.8226 3.3 11 3.3Z" fill="white"/>
</svg>
