<svg width="22" height="22" viewBox="0 0 22 22" fill="none" xmlns="http://www.w3.org/2000/svg">
<path fill-rule="evenodd" clip-rule="evenodd" d="M0.0769999 3.5838C-7.37607e-08 3.9886 0 4.4748 0 5.445V13.2C0 17.3481 -1.3113e-07 19.4227 1.2892 20.7108C2.5784 21.9989 4.6519 22 8.8 22H13.2C17.3481 22 19.4227 22 20.7108 20.7108C21.9989 19.4216 22 17.3481 22 13.2V10.7778C22 7.8826 22 6.4339 21.153 5.4934C21.0753 5.40661 20.993 5.32399 20.9066 5.2459C19.9661 4.4 18.5174 4.4 15.6222 4.4H15.2108C13.9425 4.4 13.3078 4.4 12.716 4.2317C12.3912 4.13886 12.0782 4.00894 11.7832 3.8445C11.2464 3.5464 10.7976 3.0965 9.9 2.2L9.295 1.595C8.9936 1.2936 8.844 1.144 8.6856 1.012C8.00433 0.447303 7.16863 0.101138 6.2876 0.0187C6.083 -4.5076e-08 5.8696 0 5.445 0C4.4737 0 3.9886 -7.37607e-08 3.5838 0.0769999C2.71462 0.241146 1.9151 0.66345 1.28954 1.28882C0.663974 1.91418 0.241419 2.71467 0.0769999 3.5838ZM15.7113 1.1C16.1128 1.1 16.3141 1.1 16.4835 1.122C17.6033 1.276 18.4943 2.1593 18.6989 3.3C18.5313 3.2624 18.3621 3.23267 18.1918 3.2109C17.4878 3.1185 16.599 3.1185 15.4968 3.1185H15.1294C14.0932 3.1185 13.6994 3.113 13.3419 3.0074C13.1337 2.9458 12.9336 2.85976 12.7457 2.7511C12.4201 2.5641 12.1385 2.2803 11.4059 1.5213L11 1.1H15.7113ZM12.1 7.975C11.8812 7.975 11.6714 8.06192 11.5166 8.21663C11.3619 8.37135 11.275 8.58119 11.275 8.8C11.275 9.0188 11.3619 9.22864 11.5166 9.38336C11.6714 9.53808 11.8812 9.625 12.1 9.625H17.6C17.8188 9.625 18.0286 9.53808 18.1834 9.38336C18.3381 9.22864 18.425 9.0188 18.425 8.8C18.425 8.58119 18.3381 8.37135 18.1834 8.21663C18.0286 8.06192 17.8188 7.975 17.6 7.975H12.1Z" fill="white"/>
</svg>
