<svg width="22" height="18" viewBox="0 0 22 18" fill="none" xmlns="http://www.w3.org/2000/svg">
<path d="M21.45 1.47423C21.5981 1.55976 21.7243 1.67867 21.8184 1.8215C21.9126 1.96434 21.9721 2.12716 21.9923 2.29703L22 2.42683V16.7268C22 16.9199 21.9492 17.1096 21.8526 17.2768C21.7561 17.444 21.6172 17.5829 21.45 17.6794C21.2828 17.776 21.0931 17.8268 20.9 17.8268C20.7069 17.8268 20.5172 17.776 20.35 17.6794C19.1036 16.9597 17.6998 16.5567 16.2614 16.5057C14.8231 16.4547 13.3942 16.7572 12.1 17.3868V0.695428C13.6195 0.127837 15.2457 -0.096679 16.8622 0.0379625C18.4787 0.172604 20.0453 0.66307 21.45 1.47423ZM9.9 0.696528L9.9011 17.3879C8.65788 16.7827 7.28955 16.479 5.90702 16.5013C4.5245 16.5237 3.1667 16.8715 1.9437 17.5166L1.584 17.7146L1.4707 17.763L1.4168 17.7806L1.2958 17.8092L1.2287 17.8202L1.1 17.8268H1.0538L0.9328 17.8136L0.8481 17.7982L0.7293 17.763L0.5907 17.7014L0.4862 17.6398L0.3883 17.5661L0.3223 17.5045L0.242 17.4143L0.1716 17.3164L0.1474 17.2768L0.1122 17.2108L0.0638001 17.0975L0.0462001 17.0436L0.0176 16.9226L0.00660005 16.8555L0.0022001 16.8016L0 2.42683C4.90514e-06 2.23374 0.0508342 2.04406 0.147379 1.87684C0.243924 1.70963 0.382783 1.57077 0.55 1.47423C1.95475 0.663249 3.52147 0.172975 5.13793 0.0385238C6.75438 -0.0959275 8.38057 0.128773 9.9 0.696528Z" fill="white"/>
</svg>
