<svg width="98" height="98" viewBox="0 0 98 98" fill="none" xmlns="http://www.w3.org/2000/svg">
<path fill-rule="evenodd" clip-rule="evenodd" d="M0 18.3814L79.6186 -2.76895e-05L98 79.6186L18.3814 98L0 18.3814ZM76.2748 71.0765C72.5825 71.9289 70.0516 70.4866 67.8443 68.2357L62.5791 73.1727C65.777 77.0048 71.0299 79.2794 77.9799 77.6749C85.0859 76.0343 89.5255 71.1237 87.97 64.386C86.5278 58.1393 82.2973 56.1913 75.3107 54.9284L73.2551 54.5609C69.7222 53.909 68.1231 53.3242 67.6046 51.0783C67.1856 49.2637 68.258 47.552 70.4475 47.0465C72.5939 46.551 74.1864 47.1372 76.001 49.1398L80.9633 44.0562C77.4974 40.2893 73.6982 39.4228 68.941 40.5211C62.2597 42.0636 58.97 47.3237 60.2659 52.9368C61.6713 59.0243 65.9197 61.08 71.8512 62.1321L73.9076 62.503C77.6659 63.2077 79.9094 63.6472 80.5014 66.2116C80.9962 68.3547 79.3733 70.3611 76.2748 71.0765ZM47.2689 77.7206C44.6979 78.3142 43.2204 76.8033 41.5636 74.9845L36.3244 80.0796C38.9517 83.4076 43.1371 85.705 49.125 84.3225C55.7566 82.7915 59.484 78.2166 57.6957 70.4704L51.7983 44.9261L44.3175 46.6531L50.1919 72.0979C51.055 75.8367 49.7238 77.1538 47.2656 77.7214" fill="#215C84"/>
</svg>
