<svg width="26" height="29" viewBox="0 0 26 29" fill="none" xmlns="http://www.w3.org/2000/svg">
<g filter="url(#filter0_d_16_35)">
<path d="M10.25 13C10.25 14.105 9.355 15 8.25 15C7.145 15 6.25 14.105 6.25 13C6.25 11.895 7.145 11 8.25 11C9.355 11 10.25 11.895 10.25 13Z" fill="white"/>
<path fill-rule="evenodd" clip-rule="evenodd" d="M8.25 14C8.51522 14 8.76957 13.8946 8.95711 13.7071C9.14464 13.5196 9.25 13.2652 9.25 13C9.25 12.7348 9.14464 12.4804 8.95711 12.2929C8.76957 12.1054 8.51522 12 8.25 12C7.98478 12 7.73043 12.1054 7.54289 12.2929C7.35536 12.4804 7.25 12.7348 7.25 13C7.25 13.2652 7.35536 13.5196 7.54289 13.7071C7.73043 13.8946 7.98478 14 8.25 14ZM8.25 15C9.355 15 10.25 14.105 10.25 13C10.25 11.895 9.355 11 8.25 11C7.145 11 6.25 11.895 6.25 13C6.25 14.105 7.145 15 8.25 15Z" fill="white"/>
<path d="M4 18.273C4 16.761 6.8315 16 8.25 16C9.6685 16 12.5 16.7615 12.5 18.2725V21H4V18.273Z" fill="white"/>
<path fill-rule="evenodd" clip-rule="evenodd" d="M5.167 17.9915C5.009 18.1475 5 18.237 5 18.273V20H11.5V18.2725C11.5 18.2375 11.491 18.1475 11.333 17.9915C11.166 17.827 10.8905 17.6505 10.513 17.489C9.753 17.1635 8.825 17 8.25 17C7.675 17 6.7465 17.1635 5.987 17.489C5.6095 17.6505 5.334 17.827 5.167 17.9915ZM8.25 16C6.8315 16 4 16.7615 4 18.2725V21H12.5V18.2725C12.5 16.762 9.6685 16 8.25 16Z" fill="white"/>
<path d="M19.75 13C19.75 14.105 18.855 15 17.75 15C16.645 15 15.75 14.105 15.75 13C15.75 11.895 16.645 11 17.75 11C18.855 11 19.75 11.895 19.75 13Z" fill="white"/>
<path fill-rule="evenodd" clip-rule="evenodd" d="M17.75 14C18.0152 14 18.2696 13.8946 18.4571 13.7071C18.6446 13.5196 18.75 13.2652 18.75 13C18.75 12.7348 18.6446 12.4804 18.4571 12.2929C18.2696 12.1054 18.0152 12 17.75 12C17.4848 12 17.2304 12.1054 17.0429 12.2929C16.8554 12.4804 16.75 12.7348 16.75 13C16.75 13.2652 16.8554 13.5196 17.0429 13.7071C17.2304 13.8946 17.4848 14 17.75 14ZM17.75 15C18.855 15 19.75 14.105 19.75 13C19.75 11.895 18.855 11 17.75 11C16.645 11 15.75 11.895 15.75 13C15.75 14.105 16.645 15 17.75 15Z" fill="white"/>
<path d="M15 12C15 13.105 14.105 14 13 14C11.895 14 11 13.105 11 12C11 10.895 11.895 10 13 10C14.105 10 15 10.895 15 12Z" fill="white"/>
<path fill-rule="evenodd" clip-rule="evenodd" d="M13 13C13.2652 13 13.5196 12.8946 13.7071 12.7071C13.8946 12.5196 14 12.2652 14 12C14 11.7348 13.8946 11.4804 13.7071 11.2929C13.5196 11.1054 13.2652 11 13 11C12.7348 11 12.4804 11.1054 12.2929 11.2929C12.1054 11.4804 12 11.7348 12 12C12 12.2652 12.1054 12.5196 12.2929 12.7071C12.4804 12.8946 12.7348 13 13 13ZM13 14C14.105 14 15 13.105 15 12C15 10.895 14.105 10 13 10C11.895 10 11 10.895 11 12C11 13.105 11.895 14 13 14Z" fill="white"/>
<path d="M12.5 6.4165C12.5 5.7756 12.2454 5.16096 11.7922 4.70778C11.339 4.25459 10.7244 4 10.0835 4H8.499C7.84337 3.99894 7.21358 4.25559 6.74543 4.7146C6.27728 5.17361 6.00826 5.79821 5.99639 6.45374C5.98452 7.10927 6.23073 7.7432 6.68196 8.21887C7.13318 8.69453 7.75326 8.97381 8.4085 8.9965L8.5 9V10C8.5 10 12.5 9.4165 12.5 6.4165ZM14 5.618C14 4.92366 14.2758 4.25776 14.7668 3.76679C15.2578 3.27582 15.9237 3 16.618 3H19.5C20.163 3 20.7989 3.26339 21.2678 3.73223C21.7366 4.20107 22 4.83696 22 5.5C22 6.16304 21.7366 6.79893 21.2678 7.26777C20.7989 7.73661 20.163 8 19.5 8H18.5V9.5C18.5 9.5 14 8.868 14 5.618ZM13.5 18.273C13.5 16.761 16.3315 16 17.75 16C19.1685 16 22 16.7615 22 18.2725V21H13.5V18.273Z" fill="white"/>
<path fill-rule="evenodd" clip-rule="evenodd" d="M14.667 17.9915C14.509 18.1475 14.5 18.237 14.5 18.273V20H21V18.2725C21 18.2375 20.991 18.1475 20.833 17.9915C20.666 17.827 20.3905 17.6505 20.013 17.489C19.253 17.1635 18.325 17 17.75 17C17.175 17 16.2465 17.1635 15.487 17.489C15.1095 17.6505 14.834 17.827 14.667 17.9915ZM17.75 16C16.3315 16 13.5 16.7615 13.5 18.2725V21H22V18.2725C22 16.762 19.1685 16 17.75 16ZM13 17.2725C13 16.434 12.0765 15.826 10.9975 15.451C11.6236 15.155 12.3074 15.001 13 15C13.6926 15.001 14.3764 15.155 15.0025 15.451C13.9235 15.826 13 16.434 13 17.2725Z" fill="white"/>
<path fill-rule="evenodd" clip-rule="evenodd" d="M13 17.2725C13 16.826 13.262 16.4445 13.67 16.129L13.7405 16.0765C14.089 15.8235 14.5305 15.615 15.0025 15.4515C14.5342 15.2307 14.0329 15.088 13.5185 15.029C13.1739 14.9903 12.8261 14.9903 12.4815 15.029C11.9671 15.0879 11.4659 15.2304 10.9975 15.451C11.469 15.615 11.911 15.8235 12.259 16.076C12.283 16.0933 12.3065 16.111 12.3295 16.129C12.738 16.444 13 16.826 13 17.2725Z" fill="white"/>
</g>
<defs>
<filter id="filter0_d_16_35" x="-3" y="0" width="32" height="32" filterUnits="userSpaceOnUse" color-interpolation-filters="sRGB">
<feFlood flood-opacity="0" result="BackgroundImageFix"/>
<feColorMatrix in="SourceAlpha" type="matrix" values="0 0 0 0 0 0 0 0 0 0 0 0 0 0 0 0 0 0 127 0" result="hardAlpha"/>
<feOffset dy="4"/>
<feGaussianBlur stdDeviation="2"/>
<feComposite in2="hardAlpha" operator="out"/>
<feColorMatrix type="matrix" values="0 0 0 0 0 0 0 0 0 0 0 0 0 0 0 0 0 0 0.25 0"/>
<feBlend mode="normal" in2="BackgroundImageFix" result="effect1_dropShadow_16_35"/>
<feBlend mode="normal" in="SourceGraphic" in2="effect1_dropShadow_16_35" result="shape"/>
</filter>
</defs>
</svg>
